<?xml version="1.0" encoding="UTF-8" standalone="no"?>
<!-- Created with Inkscape (http://www.inkscape.org/) -->

<svg
   xmlns:dc="http://purl.org/dc/elements/1.1/"
   xmlns:cc="http://creativecommons.org/ns#"
   xmlns:rdf="http://www.w3.org/1999/02/22-rdf-syntax-ns#"
   xmlns:svg="http://www.w3.org/2000/svg"
   xmlns="http://www.w3.org/2000/svg"
   xmlns:sodipodi="http://sodipodi.sourceforge.net/DTD/sodipodi-0.dtd"
   xmlns:inkscape="http://www.inkscape.org/namespaces/inkscape"
   width="143.08186mm"
   height="189.88936mm"
   viewBox="0 0 143.08186 189.88936"
   version="1.1"
   id="svg8"
   inkscape:version="0.92.2 (5c3e80d, 2017-08-06)"
   sodipodi:docname="alpha_convex_hull.svg">
  <defs
     id="defs2">
    <marker
       inkscape:stockid="EmptyDiamondL"
       orient="auto"
       refY="0"
       refX="0"
       id="marker1286"
       style="overflow:visible"
       inkscape:isstock="true">
      <path
         id="path1284"
         d="M 0,-7.0710768 -7.0710894,0 0,7.0710589 7.0710462,0 Z"
         style="fill:#ffffff;fill-rule:evenodd;stroke:#ff0000;stroke-width:1.00000003pt;stroke-opacity:1"
         transform="scale(0.8)"
         inkscape:connector-curvature="0" />
    </marker>
    <marker
       inkscape:stockid="EmptyDiamondL"
       orient="auto"
       refY="0"
       refX="0"
       id="EmptyDiamondL"
       style="overflow:visible"
       inkscape:isstock="true">
      <path
         id="path952"
         d="M 0,-7.0710768 -7.0710894,0 0,7.0710589 7.0710462,0 Z"
         style="fill:#ffffff;fill-rule:evenodd;stroke:#ff0000;stroke-width:1.00000003pt;stroke-opacity:1"
         transform="scale(0.8)"
         inkscape:connector-curvature="0" />
    </marker>
    <marker
       inkscape:stockid="DotL"
       orient="auto"
       refY="0"
       refX="0"
       id="marker1190"
       style="overflow:visible"
       inkscape:isstock="true">
      <path
         id="path1188"
         d="m -2.5,-1 c 0,2.76 -2.24,5 -5,5 -2.76,0 -5,-2.24 -5,-5 0,-2.76 2.24,-5 5,-5 2.76,0 5,2.24 5,5 z"
         style="fill:#ff0000;fill-opacity:1;fill-rule:evenodd;stroke:#ff0000;stroke-width:1.00000003pt;stroke-opacity:1"
         transform="matrix(0.8,0,0,0.8,5.92,0.8)"
         inkscape:connector-curvature="0" />
    </marker>
    <marker
       inkscape:stockid="DotL"
       orient="auto"
       refY="0"
       refX="0"
       id="marker1156"
       style="overflow:visible"
       inkscape:isstock="true">
      <path
         id="path1154"
         d="m -2.5,-1 c 0,2.76 -2.24,5 -5,5 -2.76,0 -5,-2.24 -5,-5 0,-2.76 2.24,-5 5,-5 2.76,0 5,2.24 5,5 z"
         style="fill:#ff0000;fill-opacity:1;fill-rule:evenodd;stroke:#ff0000;stroke-width:1.00000003pt;stroke-opacity:1"
         transform="matrix(0.8,0,0,0.8,5.92,0.8)"
         inkscape:connector-curvature="0" />
    </marker>
    <marker
       inkscape:stockid="DotL"
       orient="auto"
       refY="0"
       refX="0"
       id="DotL"
       style="overflow:visible"
       inkscape:isstock="true">
      <path
         id="path907"
         d="m -2.5,-1 c 0,2.76 -2.24,5 -5,5 -2.76,0 -5,-2.24 -5,-5 0,-2.76 2.24,-5 5,-5 2.76,0 5,2.24 5,5 z"
         style="fill:#ff0000;fill-opacity:1;fill-rule:evenodd;stroke:#ff0000;stroke-width:1.00000003pt;stroke-opacity:1"
         transform="matrix(0.8,0,0,0.8,5.92,0.8)"
         inkscape:connector-curvature="0" />
    </marker>
    <inkscape:path-effect
       effect="spiro"
       id="path-effect842"
       is_visible="true" />
    <inkscape:path-effect
       effect="spiro"
       id="path-effect838"
       is_visible="true" />
    <inkscape:path-effect
       effect="spiro"
       id="path-effect823"
       is_visible="true" />
  </defs>
  <sodipodi:namedview
     id="base"
     pagecolor="#ffffff"
     bordercolor="#666666"
     borderopacity="1.0"
     inkscape:pageopacity="0.0"
     inkscape:pageshadow="2"
     inkscape:zoom="0.70710678"
     inkscape:cx="399.18578"
     inkscape:cy="168.90418"
     inkscape:document-units="mm"
     inkscape:current-layer="layer1"
     showgrid="false"
     inkscape:window-width="1858"
     inkscape:window-height="1057"
     inkscape:window-x="-8"
     inkscape:window-y="-8"
     inkscape:window-maximized="1" />
  <metadata
     id="metadata5">
    <rdf:RDF>
      <cc:Work
         rdf:about="">
        <dc:format>image/svg+xml</dc:format>
        <dc:type
           rdf:resource="http://purl.org/dc/dcmitype/StillImage" />
        <dc:title></dc:title>
      </cc:Work>
    </rdf:RDF>
  </metadata>
  <g
     inkscape:label="Layer 1"
     inkscape:groupmode="layer"
     id="layer1"
     transform="translate(-31.911409,-40.02059)">
    <text
       xml:space="preserve"
       style="font-style:normal;font-variant:normal;font-weight:normal;font-stretch:normal;font-size:176.3888855px;line-height:1.25;font-family:'Times New Roman';-inkscape-font-specification:'Times New Roman, ';letter-spacing:0px;word-spacing:0px;fill:#000000;fill-opacity:1;stroke:none;stroke-width:0.26458332"
       x="32.808334"
       y="235.61667"
       id="text819"><tspan
         sodipodi:role="line"
         id="tspan817"
         x="32.808334"
         y="392.18311"
         style="stroke-width:0.26458332" /></text>
    <path
       style="fill:none;stroke:#000000;stroke-width:20;stroke-linecap:butt;stroke-linejoin:miter;stroke-miterlimit:4;stroke-dasharray:none;stroke-opacity:1"
       d="m 160.89625,46.675362 c -11.71089,39.130787 -23.31045,78.294888 -34.79849,117.491678 -3.45089,11.77431 -6.99479,23.77337 -13.92849,33.89595 -3.46685,5.06129 -7.77587,9.59813 -12.925449,12.93244 -5.149575,3.33431 -11.165462,5.43127 -17.298983,5.55644 -7.641137,0.15594 -15.210125,-2.79261 -21.096193,-7.66759 -5.886069,-4.87499 -10.126114,-11.58873 -12.538567,-18.84072 -4.824906,-14.50398 -2.406488,-30.50966 2.578038,-44.95956 3.919965,-11.36379 9.598,-22.4651 18.619629,-30.40941 4.510815,-3.97215 9.822291,-7.08855 15.599262,-8.74749 5.776971,-1.65893 12.024426,-1.82385 17.791763,-0.13172 4.80533,1.40987 9.20934,4.08366 12.81829,7.5556 3.60896,3.47194 6.43137,7.72852 8.41165,12.32823 3.96057,9.19944 4.51408,19.59334 3.09158,29.50758 -1.38433,9.6482 -4.57259,19.06172 -4.80725,28.80591 -0.11733,4.87209 0.5309,9.81977 2.44816,14.30031 1.91725,4.48053 5.17284,8.47343 9.46846,10.77531 3.39883,1.82132 7.38187,2.53124 11.20066,1.99636 3.81878,-0.53488 7.4535,-2.31179 10.22115,-4.99682 2.76764,-2.68503 4.65385,-6.26424 5.30418,-10.06507 0.65033,-3.80083 0.0614,-7.80355 -1.6561,-11.256"
       id="path840"
       inkscape:connector-curvature="0"
       inkscape:path-effect="#path-effect842"
       inkscape:original-d="M 160.89625,46.675362 C 151.04318,79.477979 135.95136,131.3639 126.09776,164.16704 116.24416,196.97019 96.662738,199.09 81.944838,216.55187 67.226928,234.01374 62.363154,170.65252 50.888116,145.084 39.413082,119.51548 91.673718,126.9985 102.89877,105.79538 c 11.22506,-21.203121 8.98052,23.074 24.32152,49.39141 15.34101,26.3174 -0.49864,35.04768 7.10937,53.88153 7.60801,18.83386 11.47504,-27.19048 25.06989,-24.32153"
       sodipodi:nodetypes="cssssssc" />
    <path
       style="fill:none;stroke:#ff0000;stroke-width:0.80000001;stroke-linecap:butt;stroke-linejoin:miter;stroke-miterlimit:4;stroke-dasharray:none;stroke-opacity:1;marker-start:url(#marker1156);marker-mid:url(#marker1156)"
       d="m 151.16764,43.68194 -84.564076,60.24255 -11.225318,10.85114 -9.728613,16.08963 -5.612659,14.21874 -4.490127,20.95393 v 14.21874 l 4.864304,17.58633 9.354433,14.59292 12.722029,9.72861 14.21874,4.11595 h 7.857726 l 64.732681,-5.61266 10.85114,-4.49013 8.98025,-11.59949 2.24507,-10.10279 -1.12253,-145.180808 z"
       id="path844"
       inkscape:connector-curvature="0" />
  </g>
</svg>
