<?xml version="1.0" encoding="UTF-8" standalone="no"?>
<svg
   xmlns:dc="http://purl.org/dc/elements/1.1/"
   xmlns:cc="http://creativecommons.org/ns#"
   xmlns:rdf="http://www.w3.org/1999/02/22-rdf-syntax-ns#"
   xmlns:svg="http://www.w3.org/2000/svg"
   xmlns="http://www.w3.org/2000/svg"
   xmlns:sodipodi="http://sodipodi.sourceforge.net/DTD/sodipodi-0.dtd"
   xmlns:inkscape="http://www.inkscape.org/namespaces/inkscape"
   version="1.0"
   width="125mm"
   height="78mm"
   id="svg41"
   sodipodi:docname="ccw2.svg"
   inkscape:version="0.92.2 (5c3e80d, 2017-08-06)"
   inkscape:export-filename="ccw2.png"
   inkscape:export-xdpi="96"
   inkscape:export-ydpi="96">
  <metadata
     id="metadata45">
    <rdf:RDF>
      <cc:Work
         rdf:about="">
        <dc:format>image/svg+xml</dc:format>
        <dc:type
           rdf:resource="http://purl.org/dc/dcmitype/StillImage" />
        <dc:title></dc:title>
      </cc:Work>
    </rdf:RDF>
  </metadata>
  <sodipodi:namedview
     pagecolor="#ffffff"
     bordercolor="#666666"
     borderopacity="1"
     objecttolerance="10"
     gridtolerance="10"
     guidetolerance="10"
     inkscape:pageopacity="0"
     inkscape:pageshadow="2"
     inkscape:window-width="1858"
     inkscape:window-height="1057"
     id="namedview43"
     showgrid="false"
     inkscape:zoom="0.60113333"
     inkscape:cx="236.22047"
     inkscape:cy="147.40157"
     inkscape:window-x="-8"
     inkscape:window-y="-8"
     inkscape:window-maximized="1"
     inkscape:current-layer="svg41" />
  <defs
     id="defs3">
    <pattern
       id="EMFhbasepattern"
       patternUnits="userSpaceOnUse"
       width="6"
       height="6"
       x="0"
       y="0" />
  </defs>
  <path
     style="fill:#000000;fill-rule:nonzero;fill-opacity:1;stroke:none;"
     d="  M 256.9581,54.719595   C 256.9581,65.199517 248.47816,73.599455 238.07824,73.599455   C 227.59831,73.599455 219.11838,65.199517 219.11838,54.719595   C 219.11838,44.319672 227.59831,35.839735 238.07824,35.839735   C 248.47816,35.839735 256.9581,44.319672 256.9581,54.719595   z "
     id="path5" />
  <path
     style="fill:#000000;fill-rule:nonzero;fill-opacity:1;stroke:none;"
     d="  M 67.999496,243.67819   C 67.999496,254.15812 59.519559,262.63805 49.119636,262.63805   C 38.639714,262.63805 30.159777,254.15812 30.159777,243.67819   C 30.159777,233.27827 38.639714,224.79833 49.119636,224.79833   C 59.519559,224.79833 67.999496,233.27827 67.999496,243.67819   z "
     id="path7" />
  <path
     style="fill:#000000;fill-rule:nonzero;fill-opacity:1;stroke:none;"
     d="  M 445.9167,243.67819   C 445.9167,254.15812 437.43676,262.63805 427.03684,262.63805   C 416.55691,262.63805 408.15698,254.15812 408.15698,243.67819   C 408.15698,233.27827 416.55691,224.79833 427.03684,224.79833   C 437.43676,224.79833 445.9167,233.27827 445.9167,243.67819   z "
     id="path9" />
  <path
     style="fill:none;stroke:#000000;stroke-width:7.839942px;stroke-linecap:butt;stroke-linejoin:miter;stroke-miterlimit:4;stroke-dasharray:none;stroke-opacity:1;"
     d="  M 48.63964,243.1982   L 237.83824,54.559596   L 427.27683,244.07819   z "
     id="path11" />
  <text
     xml:space="preserve"
     style="font-size:40.000000px;font-style:normal;font-variant:normal;font-weight:400;font-stretch:Condensed;line-height:125.000000%;letter-spacing:0px;word-spacing:0px;fill:#000000;fill-opacity:1;stroke:none;font-family:Times New Roman;text-align:start;text-anchor:start;"
     transform="matrix(1.000000,-0.000000,0.000000,1.000000,435.436775,224.638336)"
     x="0.000000"
     y="0.000000"
     id="text17"><tspan
       sodipodi:role="line"
       x="0.000000"
       y="0.000000"
       id="tspan15"><tspan
         dx="0.000000"
         dy="0.000000"
         style="fill:#000000;font-size:40.000000px;font-style:normal;font-variant:normal;font-weight:400;font-stretch:Condensed;font-family:Times New Roman;"
         id="tspan13">C</tspan></tspan></text>
  <text
     xml:space="preserve"
     style="font-size:40.000000px;font-style:normal;font-variant:normal;font-weight:400;font-stretch:Condensed;line-height:125.000000%;letter-spacing:0px;word-spacing:0px;fill:#000000;fill-opacity:1;stroke:none;font-family:Times New Roman;text-align:start;text-anchor:start;"
     transform="matrix(1.000000,-0.000000,0.000000,1.000000,435.436775,224.638336)"
     x="-427.196836"
     y="-2.559981"
     id="text23"><tspan
       sodipodi:role="line"
       x="-427.196836"
       y="-2.559981"
       id="tspan21"><tspan
         dx="0.000000"
         dy="0.000000"
         style="fill:#000000;font-size:40.000000px;font-style:normal;font-variant:normal;font-weight:400;font-stretch:Condensed;font-family:Times New Roman;"
         id="tspan19">A</tspan></tspan></text>
  <text
     xml:space="preserve"
     style="font-size:40.000000px;font-style:normal;font-variant:normal;font-weight:400;font-stretch:Condensed;line-height:125.000000%;letter-spacing:0px;word-spacing:0px;fill:#000000;fill-opacity:1;stroke:none;font-family:Times New Roman;text-align:start;text-anchor:start;"
     transform="matrix(1.000000,-0.000000,0.000000,1.000000,435.436775,224.638336)"
     x="-234.318264"
     y="-187.358612"
     id="text29"><tspan
       sodipodi:role="line"
       x="-234.318264"
       y="-187.358612"
       id="tspan27"><tspan
         dx="0.000000"
         dy="0.000000"
         style="fill:#000000;font-size:40.000000px;font-style:normal;font-variant:normal;font-weight:400;font-stretch:Condensed;font-family:Times New Roman;"
         id="tspan25">B</tspan></tspan></text>
  <path
     style="fill:none;stroke:#000000;stroke-width:5.9199562px;stroke-linecap:butt;stroke-linejoin:miter;stroke-miterlimit:4;stroke-dasharray:none;stroke-opacity:1;"
     d="  M 289.27786,159.75882   C 296.5578,185.19863 281.27792,212.39843 255.8381,219.59837   C 230.1583,226.95832 202.6385,211.43843 195.35855,185.75862   C 187.99861,159.75882 203.59849,131.99902 229.5983,124.63908   C 244.55819,120.39911 261.03807,123.59908 273.43797,133.03901  "
     id="path31" />
  <path
     style="fill:#000000;fill-rule:nonzero;fill-opacity:1;stroke:none;"
     d="  M 271.43799,140.71896   L 254.07812,139.43897   L 261.99806,126.63906   L 269.838,113.83916   L 279.27793,127.91905   C 284.47789,135.599 288.79786,141.99895 288.79786,141.99895   C 288.79786,141.99895 280.95792,141.43895 271.43799,140.71896   z "
     id="path33" />
</svg>
