<?xml version="1.0" encoding="UTF-8" standalone="no"?>
<!-- Created with Inkscape (http://www.inkscape.org/) -->

<svg
   xmlns:dc="http://purl.org/dc/elements/1.1/"
   xmlns:cc="http://creativecommons.org/ns#"
   xmlns:rdf="http://www.w3.org/1999/02/22-rdf-syntax-ns#"
   xmlns:svg="http://www.w3.org/2000/svg"
   xmlns="http://www.w3.org/2000/svg"
   xmlns:sodipodi="http://sodipodi.sourceforge.net/DTD/sodipodi-0.dtd"
   xmlns:inkscape="http://www.inkscape.org/namespaces/inkscape"
   width="180.74326mm"
   height="139.33206mm"
   viewBox="0 0 180.74326 139.33206"
   version="1.1"
   id="svg8"
   inkscape:version="0.92.2 (5c3e80d, 2017-08-06)"
   sodipodi:docname="concavity_tree_3.svg">
  <defs
     id="defs2">
    <inkscape:path-effect
       effect="spiro"
       id="path-effect1131"
       is_visible="true" />
    <inkscape:path-effect
       effect="spiro"
       id="path-effect1127"
       is_visible="true" />
    <inkscape:path-effect
       effect="spiro"
       id="path-effect1123"
       is_visible="true" />
    <inkscape:path-effect
       effect="spiro"
       id="path-effect1111"
       is_visible="true" />
    <marker
       inkscape:stockid="Arrow2Mend"
       orient="auto"
       refY="0"
       refX="0"
       id="Arrow2Mend"
       style="overflow:visible"
       inkscape:isstock="true">
      <path
         id="path1036"
         style="fill:#000000;fill-opacity:1;fill-rule:evenodd;stroke:#000000;stroke-width:0.625;stroke-linejoin:round;stroke-opacity:1"
         d="M 8.7185878,4.0337352 -2.2072895,0.01601326 8.7185884,-4.0017078 c -1.7454984,2.3720609 -1.7354408,5.6174519 -6e-7,8.035443 z"
         transform="scale(-0.6)"
         inkscape:connector-curvature="0" />
    </marker>
    <inkscape:path-effect
       effect="spiro"
       id="path-effect986"
       is_visible="true" />
    <inkscape:path-effect
       effect="spiro"
       id="path-effect978"
       is_visible="true" />
    <inkscape:path-effect
       effect="spiro"
       id="path-effect974"
       is_visible="true" />
    <inkscape:path-effect
       effect="spiro"
       id="path-effect950"
       is_visible="true" />
    <inkscape:path-effect
       effect="spiro"
       id="path-effect912"
       is_visible="true" />
    <inkscape:path-effect
       effect="spiro"
       id="path-effect908"
       is_visible="true" />
    <inkscape:path-effect
       effect="spiro"
       id="path-effect902"
       is_visible="true" />
    <inkscape:path-effect
       effect="spiro"
       id="path-effect898"
       is_visible="true" />
    <inkscape:path-effect
       effect="spiro"
       id="path-effect894"
       is_visible="true" />
    <inkscape:path-effect
       effect="spiro"
       id="path-effect890"
       is_visible="true" />
    <inkscape:path-effect
       effect="spiro"
       id="path-effect886"
       is_visible="true" />
    <inkscape:path-effect
       effect="spiro"
       id="path-effect882"
       is_visible="true" />
    <inkscape:path-effect
       effect="spiro"
       id="path-effect878"
       is_visible="true" />
    <inkscape:path-effect
       effect="spiro"
       id="path-effect874"
       is_visible="true" />
    <inkscape:path-effect
       effect="spiro"
       id="path-effect870"
       is_visible="true" />
    <inkscape:path-effect
       effect="spiro"
       id="path-effect843"
       is_visible="true" />
    <inkscape:path-effect
       effect="spiro"
       id="path-effect839"
       is_visible="true" />
    <inkscape:path-effect
       effect="spiro"
       id="path-effect827"
       is_visible="true" />
    <inkscape:path-effect
       effect="spiro"
       id="path-effect823"
       is_visible="true" />
    <inkscape:path-effect
       effect="spiro"
       id="path-effect819"
       is_visible="true" />
    <inkscape:path-effect
       effect="spiro"
       id="path-effect902-1"
       is_visible="true" />
    <marker
       inkscape:stockid="Arrow2Mend"
       orient="auto"
       refY="0"
       refX="0"
       id="Arrow2Mend-3"
       style="overflow:visible"
       inkscape:isstock="true">
      <path
         inkscape:connector-curvature="0"
         id="path1036-2"
         style="fill:#000000;fill-opacity:1;fill-rule:evenodd;stroke:#000000;stroke-width:0.625;stroke-linejoin:round;stroke-opacity:1"
         d="M 8.7185878,4.0337352 -2.2072895,0.01601326 8.7185884,-4.0017078 c -1.7454984,2.3720609 -1.7354408,5.6174519 -6e-7,8.035443 z"
         transform="scale(-0.6)" />
    </marker>
    <marker
       inkscape:stockid="Arrow2Mend"
       orient="auto"
       refY="0"
       refX="0"
       id="Arrow2Mend-7"
       style="overflow:visible"
       inkscape:isstock="true">
      <path
         inkscape:connector-curvature="0"
         id="path1036-5"
         style="fill:#000000;fill-opacity:1;fill-rule:evenodd;stroke:#000000;stroke-width:0.625;stroke-linejoin:round;stroke-opacity:1"
         d="M 8.7185878,4.0337352 -2.2072895,0.01601326 8.7185884,-4.0017078 c -1.7454984,2.3720609 -1.7354408,5.6174519 -6e-7,8.035443 z"
         transform="scale(-0.6)" />
    </marker>
    <inkscape:path-effect
       effect="spiro"
       id="path-effect2682"
       is_visible="true" />
    <inkscape:path-effect
       effect="spiro"
       id="path-effect2688"
       is_visible="true" />
  </defs>
  <sodipodi:namedview
     id="base"
     pagecolor="#ffffff"
     bordercolor="#666666"
     borderopacity="1.0"
     inkscape:pageopacity="0.0"
     inkscape:pageshadow="2"
     inkscape:zoom="1.4"
     inkscape:cx="273.83764"
     inkscape:cy="266.8356"
     inkscape:document-units="mm"
     inkscape:current-layer="layer1"
     showgrid="false"
     showguides="false"
     inkscape:window-width="1858"
     inkscape:window-height="1057"
     inkscape:window-x="-8"
     inkscape:window-y="-8"
     inkscape:window-maximized="1" />
  <metadata
     id="metadata5">
    <rdf:RDF>
      <cc:Work
         rdf:about="">
        <dc:format>image/svg+xml</dc:format>
        <dc:type
           rdf:resource="http://purl.org/dc/dcmitype/StillImage" />
        <dc:title></dc:title>
      </cc:Work>
    </rdf:RDF>
  </metadata>
  <g
     inkscape:label="Layer 1"
     inkscape:groupmode="layer"
     id="layer1"
     transform="translate(-33.326608,-49.277477)">
    <path
       style="fill:none;stroke:#000000;stroke-width:1;stroke-linecap:butt;stroke-linejoin:miter;stroke-miterlimit:4;stroke-dasharray:none;stroke-opacity:1"
       d="m 69.490076,89.064305 c 8.761733,-5.435195 18.795171,-8.475911 28.86511,-10.69078 6.656504,-1.46409 13.643804,-2.584852 20.228224,-0.824717 3.29221,0.880067 6.42403,2.497775 8.83964,4.90152 2.41561,2.403745 4.07679,5.621839 4.34082,9.019405 0.1687,2.170802 -0.22754,4.367134 -1.01081,6.398715 -0.78328,2.031581 -1.94649,3.903532 -3.30958,5.601422 -2.72618,3.39577 -6.21527,6.07959 -9.57762,8.84689 -4.58339,3.77225 -9.0386,7.81272 -12.35727,12.73448 -3.31868,4.92176 -5.44304,10.84188 -4.92776,16.75558 0.25764,2.95684 1.18026,5.8701 2.79121,8.36293 1.61095,2.49282 3.92066,4.5516 6.63982,5.74135 2.71915,1.18976 5.84424,1.48465 8.70477,0.693 2.86053,-0.79165 5.42387,-2.69107 6.90005,-5.26599 1.66182,-2.89872 1.87961,-6.36558 2.40775,-9.66487 0.26407,-1.64965 0.61863,-3.2979 1.27924,-4.83239 0.66061,-1.53449 1.64548,-2.95919 2.99475,-3.94434 1.35823,-0.99169 3.05083,-1.49927 4.73249,-1.48312 1.68166,0.0162 3.34618,0.54652 4.76347,1.4518 1.41728,0.90528 2.58858,2.17779 3.43151,3.63302 0.84293,1.45524 1.3614,3.08971 1.57791,4.75745 0.43304,3.33548 -0.33809,6.74387 -1.70452,9.81728 -1.36642,3.0734 -3.30869,5.85268 -5.31732,8.55052 -5.15128,6.9188 -10.87975,13.50073 -17.77533,18.68304 -6.89558,5.18232 -15.0466,8.92469 -23.63998,9.67246 -8.593383,0.74776 -17.625525,-1.71566 -23.982255,-7.54638 -3.178365,-2.91536 -5.64517,-6.62611 -6.970041,-10.7305 -1.32487,-4.1044 -1.488014,-8.59684 -0.329703,-12.75131 1.470121,-5.27283 4.917681,-9.72691 7.566727,-14.51717 1.324523,-2.39513 2.466266,-4.91979 3.032461,-7.59755 0.566195,-2.67777 0.531455,-5.52909 -0.442945,-8.08674 -0.8371,-2.19725 -2.329842,-4.09464 -4.035004,-5.71361 -1.705162,-1.61898 -3.629628,-2.98555 -5.518797,-4.38545 -1.889168,-1.39989 -3.761666,-2.84963 -5.328388,-4.60292 -1.566722,-1.7533 -2.825281,-3.84054 -3.292141,-6.14504 -0.349423,-1.72481 -0.244108,-3.52911 0.216171,-5.2277 0.460279,-1.698586 1.269488,-3.293224 2.294927,-4.723447 2.050879,-2.860445 4.921463,-5.031451 7.912414,-6.886838 z"
       id="path900"
       inkscape:connector-curvature="0"
       inkscape:path-effect="#path-effect902"
       inkscape:original-d="m 69.490076,89.064305 c 3.474238,-5.612394 19.243672,-7.127451 28.86511,-10.69078 9.621434,-3.563329 22.272724,8.73054 33.408684,13.096208 11.13597,4.365667 -9.26507,13.897747 -13.89801,20.847027 -4.63294,6.94927 5.16748,26.01396 7.75082,39.02135 2.58334,13.00738 3.47477,-14.52191 6.68174,-18.4416 3.20697,-3.91969 5.96928,20.04495 7.48354,26.72695 1.51426,6.682 -48.464609,-1.78206 -72.697309,-2.67269 -24.232703,-0.89064 6.771092,-20.13457 10.156243,-30.20146 3.385148,-10.06689 -12.115956,-13.89828 -18.17433,-20.84702 -6.058373,-6.948746 6.949273,-11.225588 10.423512,-16.837985 z"
       sodipodi:nodetypes="sssssssssss" />
    <circle
       style="fill:none;fill-opacity:1;stroke:#000000;stroke-width:1;stroke-linejoin:round;stroke-miterlimit:4;stroke-dasharray:none;stroke-dashoffset:0;stroke-opacity:1"
       id="path904"
       cx="97.018829"
       cy="100.28963"
       r="8.0162964" />
    <text
       xml:space="preserve"
       style="font-style:normal;font-variant:normal;font-weight:normal;font-stretch:normal;font-size:7.05555534px;line-height:1.25;font-family:'Times New Roman';-inkscape-font-specification:'Times New Roman, ';text-align:center;letter-spacing:0px;word-spacing:0px;text-anchor:middle;fill:#000000;fill-opacity:1;stroke:none;stroke-width:0.26458332"
       x="53.231792"
       y="135.83647"
       id="text916"><tspan
         sodipodi:role="line"
         id="tspan914"
         x="53.231792"
         y="135.83647"
         style="text-align:center;text-anchor:middle;stroke-width:0.26458332">$S_1$</tspan></text>
    <text
       xml:space="preserve"
       style="font-style:normal;font-variant:normal;font-weight:normal;font-stretch:normal;font-size:7.05555534px;line-height:1.25;font-family:'Times New Roman';-inkscape-font-specification:'Times New Roman, ';text-align:center;letter-spacing:0px;word-spacing:0px;text-anchor:middle;fill:#000000;fill-opacity:1;stroke:none;stroke-width:0.26458332"
       x="164.36215"
       y="107.13853"
       id="text916-8"><tspan
         sodipodi:role="line"
         x="164.36215"
         y="107.13853"
         style="text-align:center;text-anchor:middle;stroke-width:0.26458332"
         id="tspan936">$S_2$</tspan></text>
    <text
       xml:space="preserve"
       style="font-style:normal;font-variant:normal;font-weight:normal;font-stretch:normal;font-size:7.05555534px;line-height:1.25;font-family:'Times New Roman';-inkscape-font-specification:'Times New Roman, ';letter-spacing:0px;word-spacing:0px;fill:#000000;fill-opacity:1;stroke:none;stroke-width:0.26458332"
       x="84.991707"
       y="162.29614"
       id="text942"><tspan
         sodipodi:role="line"
         id="tspan940"
         x="84.991707"
         y="162.29614"
         style="stroke-width:0.26458332">S</tspan></text>
    <text
       xml:space="preserve"
       style="font-style:normal;font-variant:normal;font-weight:normal;font-stretch:normal;font-size:7.05555534px;line-height:1.25;font-family:'Times New Roman';-inkscape-font-specification:'Times New Roman, ';text-align:center;letter-spacing:0px;word-spacing:0px;text-anchor:middle;fill:#000000;fill-opacity:1;stroke:none;stroke-width:0.26458332"
       x="96.320198"
       y="59.397388"
       id="text946"><tspan
         sodipodi:role="line"
         id="tspan944"
         x="96.320198"
         y="59.397388"
         style="text-align:center;text-anchor:middle;stroke-width:0.26458332">$S_3$</tspan></text>
    <path
       style="fill:none;stroke:#000000;stroke-width:1;stroke-linecap:butt;stroke-linejoin:miter;stroke-miterlimit:4;stroke-dasharray:none;stroke-opacity:1"
       d="m 49.712133,170.04697 c -0.562962,-3.47241 -0.285604,-7.07806 0.801809,-10.42351 1.086758,-3.34344 2.946321,-6.37398 4.81085,-9.35444 1.971297,-3.15113 3.989705,-6.33496 5.078121,-9.88897 0.982456,-3.20801 1.155277,-6.73906 0,-9.88897 -0.954341,-2.60205 -2.758506,-4.81913 -4.81085,-6.68174 -2.814783,-2.55456 -6.132441,-4.52809 -8.819896,-7.21628 -2.199174,-2.19978 -3.939558,-4.85615 -5.078121,-7.75081"
       id="path976"
       inkscape:connector-curvature="0"
       inkscape:path-effect="#path-effect978"
       inkscape:original-d="m 49.712133,170.04697 c 0.267533,-3.47477 0.534805,-6.94927 0.801809,-10.42351 0.267004,-3.47424 3.207499,-6.23656 4.81085,-9.35444 1.603354,-3.11788 3.38568,-6.59291 5.078121,-9.88897 1.692444,-3.29606 2.65e-4,-6.59291 0,-9.88897 -2.64e-4,-3.29606 -3.206969,-4.45476 -4.81085,-6.68174 -1.603883,-2.22698 -5.879666,-4.81111 -8.819896,-7.21628 -2.940227,-2.40516 -3.38515,-5.16747 -5.078121,-7.75081" />
    <path
       style="fill:none;stroke:#000000;stroke-width:1;stroke-linecap:butt;stroke-linejoin:miter;stroke-miterlimit:4;stroke-dasharray:none;stroke-opacity:1"
       d="m 41.694046,108.84225 8.018088,61.20472"
       id="path980"
       inkscape:connector-curvature="0" />
    <path
       style="fill:none;stroke:#000000;stroke-width:1;stroke-linecap:butt;stroke-linejoin:miter;stroke-miterlimit:4;stroke-dasharray:none;stroke-opacity:1"
       d="m 194.57221,109.10952 c -1.00784,-1.79473 -2.63733,-3.23251 -4.54358,-4.00904 -2.48685,-1.01305 -5.45054,-0.85088 -7.75082,0.53454 -1.3062,0.7867 -2.37766,1.93338 -3.17058,3.23581 -0.79291,1.30243 -1.31459,2.75811 -1.64027,4.24773 -0.48198,2.20454 -0.54299,4.48731 -1.06908,6.68174 -0.4678,1.9513 -1.30884,3.82196 -2.53251,5.41226 -1.22366,1.59029 -2.83539,2.89394 -4.68376,3.67491 -2.30007,0.97182 -4.91694,1.10733 -7.34776,0.5365 -2.43082,-0.57083 -4.67623,-1.82639 -6.55026,-3.47647 -3.37334,-2.97022 -5.5535,-7.27711 -5.87993,-11.75986 -0.34742,-4.77099 1.33896,-9.49436 3.74177,-13.63074 2.17297,-3.740726 4.93771,-7.118786 8.01809,-10.15624 3.99931,-3.943586 8.52557,-7.319388 12.56167,-11.225322 2.48916,-2.408887 4.82924,-5.08198 6.1472,-8.28536 1.20939,-2.939504 1.49332,-6.251997 0.80181,-9.354436"
       id="path984"
       inkscape:connector-curvature="0"
       inkscape:path-effect="#path-effect986"
       inkscape:original-d="m 194.57221,109.10952 c -1.51426,-1.33661 -3.02879,-2.67296 -4.54358,-4.00904 -1.51479,-1.33608 -5.16695,0.35609 -7.75082,0.53454 -2.58387,0.17844 -3.20697,4.98876 -4.81085,7.48354 -1.60388,2.49478 -0.71245,4.45423 -1.06908,6.68174 -0.35662,2.22751 -4.81058,6.05785 -7.21627,9.08717 -2.40569,3.02932 -9.26508,-1.96024 -13.89802,-2.93997 -4.63294,-0.97972 -3.91969,-7.84017 -5.87993,-11.75986 -1.96024,-3.91969 2.49478,-9.08742 3.74177,-13.63074 1.247,-4.54332 5.34566,-6.7711 8.01809,-10.15624 2.67243,-3.385152 8.37471,-7.483812 12.56167,-11.225322 4.18696,-3.74151 4.0984,-5.52384 6.1472,-8.28536 2.0488,-2.76152 0.5348,-6.236555 0.80181,-9.354436" />
    <path
       style="fill:none;stroke:#000000;stroke-width:0.26458332px;stroke-linecap:butt;stroke-linejoin:miter;stroke-opacity:1"
       d="M 180.6742,61.535542 Z"
       id="path988"
       inkscape:connector-curvature="0" />
    <path
       style="fill:none;stroke:#000000;stroke-width:1;stroke-linecap:butt;stroke-linejoin:miter;stroke-miterlimit:4;stroke-dasharray:none;stroke-opacity:1"
       d="m 180.6742,61.535542 13.89801,47.573978"
       id="path990"
       inkscape:connector-curvature="0" />
    <circle
       style="fill:none;fill-opacity:1;stroke:#000000;stroke-width:1;stroke-linejoin:round;stroke-miterlimit:4;stroke-dasharray:none;stroke-dashoffset:0;stroke-opacity:1"
       id="path904-5"
       cx="95.94976"
       cy="57.793774"
       r="8.0162964" />
    <path
       style="fill:none;stroke:#000000;stroke-width:1;stroke-linecap:butt;stroke-linejoin:miter;stroke-miterlimit:4;stroke-dasharray:none;stroke-opacity:1;marker-end:url(#Arrow2Mend)"
       d="M 97.018837,84.787993 96.751568,72.226325"
       id="path1007"
       inkscape:connector-curvature="0" />
    <path
       style="fill:none;stroke:#000000;stroke-width:1;stroke-linecap:butt;stroke-linejoin:miter;stroke-miterlimit:4;stroke-dasharray:none;stroke-opacity:1;marker-end:url(#Arrow2Mend-3)"
       d="M 76.376523,129.06216 64.06829,131.58691"
       id="path1007-4"
       inkscape:connector-curvature="0" />
    <path
       style="fill:none;stroke:#000000;stroke-width:1;stroke-linecap:butt;stroke-linejoin:miter;stroke-miterlimit:4;stroke-dasharray:none;stroke-opacity:1;marker-end:url(#Arrow2Mend-7)"
       d="m 130.63734,108.91953 12.51933,-1.06452"
       id="path1007-44"
       inkscape:connector-curvature="0" />
    <path
       style="fill:none;stroke:#000000;stroke-width:1;stroke-linecap:butt;stroke-linejoin:miter;stroke-miterlimit:4;stroke-dasharray:none;stroke-opacity:1"
       d="m 170.63801,56.487403 c 0.54817,2.035453 0.65331,4.189 0.30604,6.268172 -0.23988,1.43622 -0.69368,2.836059 -1.33635,4.142677 -1.3654,2.776021 -3.53354,5.059079 -5.61265,7.349913 -1.82255,2.008144 -3.60117,4.057041 -5.47903,6.01356 -2.94561,3.068991 -6.12618,5.901225 -9.2208,8.819896 -1.7188,1.621078 -3.41179,3.26952 -5.07812,4.944492"
       id="path2680"
       inkscape:connector-curvature="0"
       inkscape:path-effect="#path-effect2682"
       inkscape:original-d="m 170.63801,56.487403 c 0.10228,2.089126 0.20429,4.178517 0.30604,6.268172 0.10175,2.089656 -0.89063,2.76152 -1.33635,4.142677 -0.44571,1.381157 -3.74151,4.899676 -5.61265,7.349913 -1.87115,2.450235 -3.29606,4.231503 -5.47903,6.01356 -2.18296,1.78207 -6.14693,5.79058 -9.2208,8.819896 -3.07386,3.02932 -3.56333,3.162429 -5.07812,4.944492"
       sodipodi:nodetypes="csccccc" />
    <path
       style="fill:none;stroke:#000000;stroke-width:1;stroke-linecap:butt;stroke-linejoin:miter;stroke-miterlimit:4;stroke-dasharray:none;stroke-opacity:1"
       d="m 143.68256,94.026113 26.95545,-37.53871"
       id="path2684"
       inkscape:connector-curvature="0" />
    <path
       style="fill:none;stroke:#000000;stroke-width:1;stroke-linecap:butt;stroke-linejoin:miter;stroke-miterlimit:4;stroke-dasharray:none;stroke-opacity:1"
       d="m 201.60609,123.01138 c -0.46721,-1.22907 -1.30086,-2.3162 -2.36665,-3.08626 -1.23712,-0.89384 -2.75494,-1.34809 -4.27631,-1.46999 -1.63836,-0.13127 -3.31787,0.11445 -4.81085,0.80181 -1.42303,0.65516 -2.65177,1.69917 -3.60814,2.93997 -1.16819,1.51562 -1.93881,3.32737 -2.27179,5.21175 -0.28087,1.58951 -0.25591,3.22094 -0.53454,4.81085 -0.36112,2.06065 -1.23084,4.01511 -2.40543,5.7463 -0.83506,1.23077 -1.82535,2.3561 -2.93996,3.34087"
       id="path2686"
       inkscape:connector-curvature="0"
       inkscape:path-effect="#path-effect2688"
       inkscape:original-d="m 201.60609,123.01138 c -0.78862,-1.02902 -1.5775,-2.05777 -2.36665,-3.08626 -0.78914,-1.02849 -2.85061,-0.98026 -4.27631,-1.46999 -1.4257,-0.48973 -3.20697,0.53428 -4.81085,0.80181 -1.60388,0.26754 -2.40516,1.95971 -3.60814,2.93997 -1.20298,0.98025 -1.51426,3.47424 -2.27179,5.21175 -0.75753,1.73752 -0.3561,3.20697 -0.53454,4.81085 -0.17844,1.60388 -1.60335,3.8306 -2.40543,5.7463 -0.80207,1.91569 -1.9597,2.22698 -2.93996,3.34087" />
    <path
       style="fill:none;stroke:#000000;stroke-width:1;stroke-linecap:butt;stroke-linejoin:miter;stroke-miterlimit:4;stroke-dasharray:none;stroke-opacity:1"
       d="m 178.39242,141.30668 23.21367,-18.2953"
       id="path2690"
       inkscape:connector-curvature="0" />
    <path
       style="fill:none;stroke:#000000;stroke-width:1;stroke-linecap:butt;stroke-linejoin:miter;stroke-miterlimit:4;stroke-dasharray:none;stroke-opacity:1"
       d="m 55.057525,174.32329 c -0.443687,-1.74443 -0.567057,-3.56979 -0.362132,-5.35806 0.204641,-1.78579 0.731107,-3.51924 1.336347,-5.21175 0.672314,-1.88008 1.446593,-3.72764 2.405426,-5.47903 0.855024,-1.56177 1.852708,-3.03998 2.80633,-4.54358 1.080399,-1.70349 2.105648,-3.44196 3.073601,-5.21176"
       id="path1109"
       inkscape:connector-curvature="0"
       inkscape:path-effect="#path-effect1111"
       inkscape:original-d="m 55.057525,174.32329 c -0.120446,-1.78628 -0.241157,-3.5723 -0.362132,-5.35806 -0.120975,-1.78575 0.891163,-3.47476 1.336347,-5.21175 0.445185,-1.73699 1.603882,-3.65295 2.405426,-5.47903 0.801545,-1.82607 1.871152,-3.02931 2.80633,-4.54358 0.93518,-1.51426 2.049332,-3.47477 3.073601,-5.21176"
       sodipodi:nodetypes="cssccc" />
    <path
       style="fill:none;stroke:#000000;stroke-width:0.26458332px;stroke-linecap:butt;stroke-linejoin:miter;stroke-opacity:1"
       d="M 62.17894,156.80447 Z"
       id="path1113"
       inkscape:connector-curvature="0" />
    <path
       style="fill:none;stroke:#000000;stroke-width:1;stroke-linecap:butt;stroke-linejoin:miter;stroke-miterlimit:4;stroke-dasharray:none;stroke-opacity:1"
       d="m 64.317096,148.51911 -9.25957,25.80418"
       id="path1117"
       inkscape:connector-curvature="0" />
    <path
       style="fill:none;stroke:#000000;stroke-width:1;stroke-linecap:butt;stroke-linejoin:miter;stroke-miterlimit:4;stroke-dasharray:none;stroke-opacity:1"
       d="M 46.103993,103.36322 60.842592,118.8522"
       id="path1119"
       inkscape:connector-curvature="0" />
    <path
       style="fill:none;stroke:#000000;stroke-width:1;stroke-linecap:butt;stroke-linejoin:miter;stroke-miterlimit:4;stroke-dasharray:none;stroke-opacity:1"
       d="m 46.103993,103.36322 c 0.517681,1.83509 1.398976,3.56684 2.577835,5.06546 0.955264,1.21437 2.095408,2.26799 3.207234,3.34087 0.998823,0.96384 1.981362,1.9498 3.0736,2.80633 1.108705,0.86944 2.320226,1.59747 3.474505,2.40543 0.832525,0.58274 1.635688,1.20742 2.405425,1.87089"
       id="path1121"
       inkscape:connector-curvature="0"
       inkscape:path-effect="#path-effect1123"
       inkscape:original-d="m 46.103993,103.36322 c 0,0 1.48032,3.52118 2.577835,5.06546 0.894279,1.25831 2.102087,2.26303 3.207234,3.34087 0.993194,0.96865 1.988552,1.94181 3.0736,2.80633 1.1017,0.87779 2.339029,1.57179 3.474505,2.40543 0.818803,0.60114 2.405425,1.87089 2.405425,1.87089"
       sodipodi:nodetypes="cssssc" />
    <path
       style="fill:none;stroke:#000000;stroke-width:1;stroke-linecap:butt;stroke-linejoin:miter;stroke-miterlimit:4;stroke-dasharray:none;stroke-opacity:1"
       d="m 173.9512,140.45624 6.39978,-16.38613"
       id="path1125"
       inkscape:connector-curvature="0"
       inkscape:path-effect="#path-effect1127"
       inkscape:original-d="m 173.9512,140.45624 c 2.13352,-5.46231 4.26678,-10.92435 6.39978,-16.38613" />
    <path
       style="fill:none;stroke:#000000;stroke-width:1;stroke-linecap:butt;stroke-linejoin:miter;stroke-miterlimit:4;stroke-dasharray:none;stroke-opacity:1"
       d="m 180.35098,124.07011 c -0.32632,1.10989 -0.5481,2.25048 -0.66146,3.40178 -0.12416,1.26106 -0.11926,2.5393 -0.37797,3.77977 -0.3185,1.52719 -1.02418,2.94108 -1.7009,4.34672 -0.50258,1.04393 -0.99819,2.10263 -1.70089,3.02381 -0.54498,0.71442 -1.20993,1.3371 -1.95856,1.83405"
       id="path1129"
       inkscape:connector-curvature="0"
       inkscape:path-effect="#path-effect1131"
       inkscape:original-d="m 180.35098,124.07011 c -0.22022,1.13366 -0.44071,2.26759 -0.66146,3.40178 -0.22075,1.1342 -0.25172,2.51958 -0.37797,3.77977 -0.12626,1.26018 -1.13367,2.89755 -1.7009,4.34672 -0.56723,1.44918 -1.13366,2.01561 -1.70089,3.02381 -0.56723,1.0082 -1.30544,1.22244 -1.95856,1.83405" />
    <text
       xml:space="preserve"
       style="font-style:normal;font-variant:normal;font-weight:normal;font-stretch:normal;font-size:7.05555534px;line-height:1.25;font-family:'Times New Roman';-inkscape-font-specification:'Times New Roman, ';text-align:end;letter-spacing:0px;word-spacing:0px;text-anchor:end;fill:#000000;fill-opacity:1;stroke:none;stroke-width:0.26458332"
       x="156.58672"
       y="72.82972"
       id="text916-8-4"><tspan
         sodipodi:role="line"
         x="156.58672"
         y="72.82972"
         style="text-align:end;text-anchor:end;stroke-width:0.26458332"
         id="tspan936-9">$S_{21}$</tspan></text>
    <text
       xml:space="preserve"
       style="font-style:normal;font-variant:normal;font-weight:normal;font-stretch:normal;font-size:7.05555534px;line-height:1.25;font-family:'Times New Roman';-inkscape-font-specification:'Times New Roman, ';text-align:start;letter-spacing:0px;word-spacing:0px;text-anchor:start;fill:#000000;fill-opacity:1;stroke:none;stroke-width:0.26458332"
       x="186.07846"
       y="141.05443"
       id="text916-8-4-4"><tspan
         sodipodi:role="line"
         x="186.07846"
         y="141.05443"
         style="text-align:start;text-anchor:start;stroke-width:0.26458332"
         id="tspan936-9-0">$S_{22}$</tspan></text>
    <text
       xml:space="preserve"
       style="font-style:normal;font-variant:normal;font-weight:normal;font-stretch:normal;font-size:7.05555534px;line-height:1.25;font-family:'Times New Roman';-inkscape-font-specification:'Times New Roman, ';text-align:end;letter-spacing:0px;word-spacing:0px;text-anchor:end;fill:#000000;fill-opacity:1;stroke:none;stroke-width:0.26458332"
       x="173.82129"
       y="136.32973"
       id="text916-8-4-0"><tspan
         sodipodi:role="line"
         x="173.82129"
         y="136.32973"
         style="text-align:end;text-anchor:end;stroke-width:0.26458332"
         id="tspan936-9-9">$S_{221}$</tspan></text>
    <text
       xml:space="preserve"
       style="font-style:normal;font-variant:normal;font-weight:normal;font-stretch:normal;font-size:7.05555534px;line-height:1.25;font-family:'Times New Roman';-inkscape-font-specification:'Times New Roman, ';text-align:center;letter-spacing:0px;word-spacing:0px;text-anchor:middle;fill:#000000;fill-opacity:1;stroke:none;stroke-width:0.26458332"
       x="46.996746"
       y="101.55592"
       id="text916-8-4-3"><tspan
         sodipodi:role="line"
         x="46.996746"
         y="101.55592"
         style="text-align:center;text-anchor:middle;stroke-width:0.26458332"
         id="tspan936-9-5">$S_{11}$</tspan></text>
    <text
       xml:space="preserve"
       style="font-style:normal;font-variant:normal;font-weight:normal;font-stretch:normal;font-size:7.05555534px;line-height:1.25;font-family:'Times New Roman';-inkscape-font-specification:'Times New Roman, ';text-align:center;letter-spacing:0px;word-spacing:0px;text-anchor:middle;fill:#000000;fill-opacity:1;stroke:none;stroke-width:0.26458332"
       x="52.869896"
       y="180.36395"
       id="text916-8-4-3-3"><tspan
         sodipodi:role="line"
         x="52.869896"
         y="180.36395"
         style="text-align:center;text-anchor:middle;stroke-width:0.26458332"
         id="tspan936-9-5-9">$S_{12}$</tspan></text>
  </g>
</svg>
