<?xml version="1.0" encoding="UTF-8" standalone="no"?>
<svg
   xmlns:dc="http://purl.org/dc/elements/1.1/"
   xmlns:cc="http://creativecommons.org/ns#"
   xmlns:rdf="http://www.w3.org/1999/02/22-rdf-syntax-ns#"
   xmlns:svg="http://www.w3.org/2000/svg"
   xmlns="http://www.w3.org/2000/svg"
   xmlns:sodipodi="http://sodipodi.sourceforge.net/DTD/sodipodi-0.dtd"
   xmlns:inkscape="http://www.inkscape.org/namespaces/inkscape"
   version="1.0"
   width="104.94356mm"
   height="102.03316mm"
   id="svg47"
   sodipodi:docname="gen_2.svg"
   inkscape:version="0.92.2 (5c3e80d, 2017-08-06)">
  <metadata
     id="metadata51">
    <rdf:RDF>
      <cc:Work
         rdf:about="">
        <dc:format>image/svg+xml</dc:format>
        <dc:type
           rdf:resource="http://purl.org/dc/dcmitype/StillImage" />
        <dc:title></dc:title>
      </cc:Work>
    </rdf:RDF>
  </metadata>
  <sodipodi:namedview
     pagecolor="#ffffff"
     bordercolor="#666666"
     borderopacity="1"
     objecttolerance="10"
     gridtolerance="10"
     guidetolerance="10"
     inkscape:pageopacity="0"
     inkscape:pageshadow="2"
     inkscape:window-width="1858"
     inkscape:window-height="1057"
     id="namedview49"
     showgrid="false"
     inkscape:zoom="0.52034722"
     inkscape:cx="197.95409"
     inkscape:cy="173.58538"
     inkscape:window-x="-8"
     inkscape:window-y="-8"
     inkscape:window-maximized="1"
     inkscape:current-layer="svg47" />
  <defs
     id="defs3">
    <pattern
       id="EMFhbasepattern"
       patternUnits="userSpaceOnUse"
       width="6"
       height="6"
       x="0"
       y="0" />
  </defs>
  <path
     style="fill:none;stroke:#000000;stroke-width:3.7599721px;stroke-linecap:butt;stroke-linejoin:miter;stroke-miterlimit:4;stroke-dasharray:none;stroke-opacity:1"
     d="m 381.83717,198.15853 c 0,102.47924 -83.11939,185.59863 -185.59863,185.59863 -102.479237,0 -185.51862,-83.11939 -185.51862,-185.59863 0,-102.479241 83.039383,-185.518624 185.51862,-185.518624 102.47924,0 185.59863,83.039383 185.59863,185.518624 z"
     id="path5"
     inkscape:connector-curvature="0" />
  <path
     style="fill:#000000;fill-opacity:1;fill-rule:nonzero;stroke:none"
     d="m 50.959622,105.83922 c 0,8.31994 -6.79995,15.11988 -15.119888,15.11988 -8.319938,0 -15.119888,-6.79994 -15.119888,-15.11988 0,-8.319941 6.79995,-15.119891 15.119888,-15.119891 8.319938,0 15.119888,6.79995 15.119888,15.119891 z"
     id="path7"
     inkscape:connector-curvature="0" />
  <path
     style="fill:#000000;fill-opacity:1;fill-rule:nonzero;stroke:none"
     d="m 30.239776,223.67834 c 0,8.39994 -6.79995,15.11989 -15.119887,15.11989 C 6.7999495,238.79823 0,232.07828 0,223.67834 c 0,-8.31993 6.7999495,-15.11988 15.119889,-15.11988 8.319937,0 15.119887,6.79995 15.119887,15.11988 z"
     id="path9"
     inkscape:connector-curvature="0" />
  <path
     style="fill:#000000;fill-opacity:1;fill-rule:nonzero;stroke:none"
     d="m 111.67917,352.23739 c 0,8.39994 -6.79995,15.11989 -15.119886,15.11989 -8.319937,0 -15.119888,-6.71995 -15.119888,-15.11989 0,-8.31994 6.79995,-15.11989 15.119888,-15.11989 8.319936,0 15.119886,6.79995 15.119886,15.11989 z"
     id="path11"
     inkscape:connector-curvature="0" />
  <path
     style="fill:#000000;fill-opacity:1;fill-rule:nonzero;stroke:none"
     d="m 326.63758,345.83744 c 0,8.31994 -6.71995,15.11989 -15.11989,15.11989 -8.31994,0 -15.03989,-6.79995 -15.03989,-15.11989 0,-8.31994 6.71995,-15.11989 15.03989,-15.11989 8.39994,0 15.11989,6.79995 15.11989,15.11989 z"
     id="path13"
     inkscape:connector-curvature="0" />
  <path
     style="fill:#000000;fill-opacity:1;fill-rule:nonzero;stroke:none"
     d="m 396.63706,199.43852 c 0,8.31994 -6.71995,15.11989 -15.11989,15.11989 -8.31994,0 -15.11989,-6.79995 -15.11989,-15.11989 0,-8.39993 6.79995,-15.11988 15.11989,-15.11988 8.39994,0 15.11989,6.71995 15.11989,15.11988 z"
     id="path15"
     inkscape:connector-curvature="0" />
  <path
     style="fill:#000000;fill-opacity:1;fill-rule:nonzero;stroke:none"
     d="m 337.3575,59.43956 c 0,8.319938 -6.71995,15.119888 -15.11989,15.119888 -8.31994,0 -15.11989,-6.79995 -15.11989,-15.119888 0,-8.399938 6.79995,-15.119888 15.11989,-15.119888 8.39994,0 15.11989,6.71995 15.11989,15.119888 z"
     id="path17"
     inkscape:connector-curvature="0" />
  <path
     style="fill:#000000;fill-opacity:1;fill-rule:nonzero;stroke:none"
     d="m 234.55826,15.119888 c 0,8.319938 -6.79995,15.119888 -15.11989,15.119888 -8.39994,0 -15.11989,-6.79995 -15.11989,-15.119888 C 204.31848,6.79995 211.03843,0 219.43837,0 c 8.31994,0 15.11989,6.79995 15.11989,15.119888 z"
     id="path19"
     inkscape:connector-curvature="0" />
  <path
     style="fill:#000000;fill-opacity:1;fill-rule:nonzero;stroke:none"
     d="m 125.27907,31.519766 c 0,8.399938 -6.79995,15.119888 -15.11989,15.119888 -8.39994,0 -15.119886,-6.71995 -15.119886,-15.119888 0,-8.319938 6.719946,-15.119888 15.119886,-15.119888 8.31994,0 15.11989,6.79995 15.11989,15.119888 z"
     id="path21"
     inkscape:connector-curvature="0" />
  <path
     style="fill:#000000;fill-opacity:1;fill-rule:nonzero;stroke:none"
     d="m 183.67864,159.51882 c 0,8.31994 -6.71995,15.11989 -15.11989,15.11989 -8.31994,0 -15.11989,-6.79995 -15.11989,-15.11989 0,-8.31994 6.79995,-15.11989 15.11989,-15.11989 8.39994,0 15.11989,6.79995 15.11989,15.11989 z"
     id="path23"
     inkscape:connector-curvature="0" />
  <path
     style="fill:#000000;fill-opacity:1;fill-rule:nonzero;stroke:none"
     d="m 182.95864,228.07831 c 0,8.39994 -6.71995,15.11989 -15.11989,15.11989 -8.31994,0 -15.11988,-6.71995 -15.11988,-15.11989 0,-8.31994 6.79994,-15.11989 15.11988,-15.11989 8.39994,0 15.11989,6.79995 15.11989,15.11989 z"
     id="path25"
     inkscape:connector-curvature="0" />
  <path
     style="fill:#000000;fill-opacity:1;fill-rule:nonzero;stroke:none"
     d="m 127.99905,227.35832 c 0,8.39993 -6.79995,15.11988 -15.11989,15.11988 -8.39994,0 -15.119886,-6.71995 -15.119886,-15.11988 0,-8.31994 6.719946,-15.11989 15.119886,-15.11989 8.31994,0 15.11989,6.79995 15.11989,15.11989 z"
     id="path27"
     inkscape:connector-curvature="0" />
  <path
     style="fill:#000000;fill-opacity:1;fill-rule:nonzero;stroke:none"
     d="m 92.959313,141.67895 c 0,8.31994 -6.719952,15.11989 -15.11989,15.11989 -8.319937,0 -15.119888,-6.79995 -15.119888,-15.11989 0,-8.31994 6.79995,-15.11989 15.119888,-15.11989 8.399938,0 15.11989,6.79995 15.11989,15.11989 z"
     id="path29"
     inkscape:connector-curvature="0" />
  <path
     style="fill:#000000;fill-opacity:1;fill-rule:nonzero;stroke:none"
     d="m 204.39848,114.55915 c 0,8.31994 -6.71995,15.11989 -15.11989,15.11989 -8.31993,0 -15.11988,-6.79995 -15.11988,-15.11989 0,-8.39994 6.79995,-15.119891 15.11988,-15.119891 8.39994,0 15.11989,6.719951 15.11989,15.119891 z"
     id="path31"
     inkscape:connector-curvature="0" />
  <path
     style="fill:#000000;fill-opacity:1;fill-rule:nonzero;stroke:none"
     d="m 301.51776,240.23822 c 0,8.31994 -6.71995,15.11989 -15.03989,15.11989 -8.39993,0 -15.11988,-6.79995 -15.11988,-15.11989 0,-8.31994 6.71995,-15.11989 15.11988,-15.11989 8.31994,0 15.03989,6.79995 15.03989,15.11989 z"
     id="path33"
     inkscape:connector-curvature="0" />
  <path
     style="fill:#000000;fill-opacity:1;fill-rule:nonzero;stroke:none"
     d="m 217.99838,283.8379 c 0,8.31994 -6.79995,15.11989 -15.11989,15.11989 -8.39993,0 -15.11988,-6.79995 -15.11988,-15.11989 0,-8.39994 6.71995,-15.11989 15.11988,-15.11989 8.31994,0 15.11989,6.71995 15.11989,15.11989 z"
     id="path35"
     inkscape:connector-curvature="0" />
  <path
     style="fill:#000000;fill-opacity:1;fill-rule:nonzero;stroke:none"
     d="m 297.99779,138.07898 c 0,8.39994 -6.79995,15.11989 -15.11989,15.11989 -8.39994,0 -15.11989,-6.71995 -15.11989,-15.11989 0,-8.31994 6.71995,-15.11989 15.11989,-15.11989 8.31994,0 15.11989,6.79995 15.11989,15.11989 z"
     id="path37"
     inkscape:connector-curvature="0" />
  <path
     style="fill:#000000;fill-opacity:1;fill-rule:nonzero;stroke:none"
     d="m 177.99868,284.55789 c 0,8.31994 -6.79995,15.11989 -15.11989,15.11989 -8.39994,0 -15.11989,-6.79995 -15.11989,-15.11989 0,-8.39993 6.71995,-15.11988 15.11989,-15.11988 8.31994,0 15.11989,6.71995 15.11989,15.11988 z"
     id="path39"
     inkscape:connector-curvature="0" />
</svg>
