<?xml version="1.0" encoding="UTF-8" standalone="no"?>
<svg
   xmlns:dc="http://purl.org/dc/elements/1.1/"
   xmlns:cc="http://creativecommons.org/ns#"
   xmlns:rdf="http://www.w3.org/1999/02/22-rdf-syntax-ns#"
   xmlns:svg="http://www.w3.org/2000/svg"
   xmlns="http://www.w3.org/2000/svg"
   xmlns:sodipodi="http://sodipodi.sourceforge.net/DTD/sodipodi-0.dtd"
   xmlns:inkscape="http://www.inkscape.org/namespaces/inkscape"
   version="1.0"
   width="127mm"
   height="95mm"
   id="svg6811"
   sodipodi:docname="my_add_point_6.svg"
   inkscape:version="0.92.2 (5c3e80d, 2017-08-06)"
   inkscape:export-filename="D:\university\disser\new\pictures\my_add_point_6.png"
   inkscape:export-xdpi="96"
   inkscape:export-ydpi="96">
  <metadata
     id="metadata6815">
    <rdf:RDF>
      <cc:Work
         rdf:about="">
        <dc:format>image/svg+xml</dc:format>
        <dc:type
           rdf:resource="http://purl.org/dc/dcmitype/StillImage" />
        <dc:title></dc:title>
      </cc:Work>
    </rdf:RDF>
  </metadata>
  <sodipodi:namedview
     pagecolor="#ffffff"
     bordercolor="#666666"
     borderopacity="1"
     objecttolerance="10"
     gridtolerance="10"
     guidetolerance="10"
     inkscape:pageopacity="0"
     inkscape:pageshadow="2"
     inkscape:window-width="1858"
     inkscape:window-height="1057"
     id="namedview6813"
     showgrid="false"
     inkscape:zoom="1.673486"
     inkscape:cx="86.880505"
     inkscape:cy="155.25817"
     inkscape:window-x="-8"
     inkscape:window-y="-8"
     inkscape:window-maximized="1"
     inkscape:current-layer="svg6811" />
  <defs
     id="defs6767">
    <pattern
       id="EMFhbasepattern"
       patternUnits="userSpaceOnUse"
       width="6"
       height="6"
       x="0"
       y="0" />
  </defs>
  <path
     style="fill:#000000;fill-rule:nonzero;fill-opacity:1;stroke:none;"
     d="  M 381.51717,51.839616   C 381.51717,60.159554 374.79722,66.959504 366.39729,66.959504   C 358.07735,66.959504 351.3574,60.159554 351.3574,51.839616   C 351.3574,43.439678 358.07735,36.719728 366.39729,36.719728   C 374.79722,36.719728 381.51717,43.439678 381.51717,51.839616   z "
     id="path6769" />
  <path
     style="fill:#000000;fill-rule:nonzero;fill-opacity:1;stroke:none;"
     d="  M 151.27888,261.91806   C 151.27888,270.238 144.47893,277.03795 136.15899,277.03795   C 127.75905,277.03795 121.0391,270.238 121.0391,261.91806   C 121.0391,253.59812 127.75905,246.79817 136.15899,246.79817   C 144.47893,246.79817 151.27888,253.59812 151.27888,261.91806   z "
     id="path6773" />
  <path
     style="fill:#000000;fill-rule:nonzero;fill-opacity:1;stroke:none;"
     d="  M 456.31662,192.23858   C 456.31662,200.55851 449.51667,207.35846 441.19673,207.35846   C 432.87679,207.35846 426.07684,200.55851 426.07684,192.23858   C 426.07684,183.83864 432.87679,177.11869 441.19673,177.11869   C 449.51667,177.11869 456.31662,183.83864 456.31662,192.23858   z "
     id="path6775" />
  <path
     style="fill:#000000;fill-rule:nonzero;fill-opacity:1;stroke:none;"
     d="  M 349.19741,295.27781   C 349.19741,303.59775 342.47746,310.3977 334.07753,310.3977   C 325.75759,310.3977 318.95764,303.59775 318.95764,295.27781   C 318.95764,286.87787 325.75759,280.15792 334.07753,280.15792   C 342.47746,280.15792 349.19741,286.87787 349.19741,295.27781   z "
     id="path6777" />
  <path
     style="fill:#000000;fill-rule:nonzero;fill-opacity:1;stroke:none;"
     d="  M 53.279605,93.19931   C 53.279605,101.59925 46.479656,108.3192 38.159717,108.3192   C 29.75978,108.3192 23.039829,101.59925 23.039829,93.19931   C 23.039829,84.879371 29.75978,78.079422 38.159717,78.079422   C 46.479656,78.079422 53.279605,84.879371 53.279605,93.19931   z "
     id="path6779" />
  <path
     style="fill:none;stroke:#000000;stroke-width:5.6799579px;stroke-linecap:butt;stroke-linejoin:miter;stroke-miterlimit:4;stroke-dasharray:none;stroke-opacity:1;"
     d="  M 367.43728,50.799624   L 441.19673,193.19857   L 333.11753,296.23781   L 137.11898,260.87807   L 37.359723,93.11931   z "
     id="path6781" />
  <text
     xml:space="preserve"
     style="font-size:40.000000px;font-style:normal;font-variant:normal;font-weight:400;font-stretch:Condensed;line-height:125.000000%;letter-spacing:0px;word-spacing:0px;fill:#000000;fill-opacity:1;stroke:none;font-family:Times New Roman;text-align:start;text-anchor:start;"
     transform="matrix(1.000000,-0.000000,0.000000,1.000000,9.759928,75.119444)"
     x="0.000000"
     y="0.000000"
     id="text6787"><tspan
       sodipodi:role="line"
       x="0.000000"
       y="0.000000"
       id="tspan6785"><tspan
         dx="0.000000"
         dy="0.000000"
         style="fill:#000000;font-size:40.000000px;font-style:normal;font-variant:normal;font-weight:400;font-stretch:Condensed;font-family:Times New Roman;"
         id="tspan6783">A</tspan></tspan></text>
  <path
     style="fill:none;stroke:#000000;stroke-width:5.99995565px;stroke-linecap:butt;stroke-linejoin:miter;stroke-miterlimit:4;stroke-dasharray:none;stroke-opacity:1"
     d="m 224.99595,133.4007 c -26.96466,2.02385 -47.51852,25.90063 -45.24859,52.22262 2.24649,26.72129 27.07782,47.12281 54.3093,44.92227 4.63846,-0.38494 9.16789,-1.36929 13.58822,-2.95305"
     id="path6795"
     inkscape:connector-curvature="0" />
  <path
     style="fill:#000000;fill-opacity:1;fill-rule:nonzero;stroke:none"
     d="m 249.60182,233.30095 -11.07057,13.85517 -5.50484,-13.52962 -5.46067,-13.4629 16.53124,-0.39227 c 9.05342,-0.23805 16.46454,-0.34809 16.46454,-0.34809 0,0 -4.96743,6.26372 -10.9597,13.87771 z"
     id="path6797"
     inkscape:connector-curvature="0" />
  <text
     xml:space="preserve"
     style="font-style:normal;font-variant:normal;font-weight:400;font-size:40px;line-height:125%;font-family:'Times New Roman';text-align:start;letter-spacing:0px;word-spacing:0px;text-anchor:start;fill:#000000;fill-opacity:1;stroke:none"
     x="80.357712"
     y="268.69839"
     id="text6803"><tspan
       sodipodi:role="line"
       x="80.357712"
       y="268.69839"
       id="tspan6801"><tspan
         dx="0"
         dy="0"
         style="font-style:normal;font-variant:normal;font-weight:400;font-size:40px;font-family:'Times New Roman';fill:#000000"
         id="tspan6799">B</tspan></tspan></text>
  <text
     xml:space="preserve"
     style="font-style:normal;font-variant:normal;font-weight:400;font-size:40px;line-height:125%;font-family:'Times New Roman';text-align:start;letter-spacing:0px;word-spacing:0px;text-anchor:start;fill:#000000;fill-opacity:1;stroke:none"
     x="350.77814"
     y="327.1557"
     id="text6809"><tspan
       sodipodi:role="line"
       x="350.77814"
       y="327.1557"
       id="tspan6807"><tspan
         dx="0"
         dy="0"
         style="font-style:normal;font-variant:normal;font-weight:400;font-size:40px;font-family:'Times New Roman';fill:#000000"
         id="tspan6805">C</tspan></tspan></text>
</svg>
